<?xml version="1.0" encoding="UTF-8" standalone="no"?>
<!DOCTYPE svg PUBLIC "-//W3C//DTD SVG 1.1//EN" "http://www.w3.org/Graphics/SVG/1.1/DTD/svg11.dtd">
<svg width="100%" height="100%" viewBox="0 0 2550 1650" version="1.1" xmlns="http://www.w3.org/2000/svg" xmlns:xlink="http://www.w3.org/1999/xlink" xml:space="preserve" xmlns:serif="http://www.serif.com/" style="fill-rule:evenodd;clip-rule:evenodd;stroke-linejoin:round;stroke-miterlimit:2;">
    <g transform="matrix(1,0,0,1,-524,-259)">
        <text x="590.289px" y="982px" style="font-family:'Helvetica-Bold', 'Helvetica';font-weight:700;font-size:496.993px;fill:rgb(247,234,255);stroke:rgb(139,115,85);stroke-width:1.25px;">TSUNAGU</text>
        <text x="1239.194px" y="1478.993px" style="font-family:'Helvetica-Bold', 'Helvetica';font-weight:700;font-size:496.993px;fill:rgb(247,234,255);stroke:rgb(139,115,85);stroke-width:1.25px;">LINK</text>
    </g>
    <g transform="matrix(1.427746,0,0,2.356164,-187.526012,-964.09589)">
        <ellipse cx="487.5" cy="632" rx="86.5" ry="73" style="fill:url(#_Linear1);stroke:rgb(247,234,255);stroke-width:1.07px;stroke-linecap:round;stroke-miterlimit:1.5;"/>
    </g>
    <g transform="matrix(1.023077,0,0,0.993377,-72.746154,-29.986755)">
        <path d="M1614,455L1679,606L1549,606L1614,455Z" style="fill:url(#_Linear2);"/>
    </g>
    <g transform="matrix(1.002318,0,0,1.002318,-555.183378,-278.428755)">
        <text x="590.289px" y="982px" style="font-family:'Helvetica-Bold', 'Helvetica';font-weight:700;font-size:496.993px;fill:rgb(139,115,85);stroke:rgb(139,115,85);stroke-width:1.25px;">TSUNAGU</text>
        <text x="1239.194px" y="1478.993px" style="font-family:'Helvetica-Bold', 'Helvetica';font-weight:700;font-size:496.993px;fill:rgb(139,115,85);stroke:rgb(139,115,85);stroke-width:1.25px;">LINK</text>
    </g>
    <g transform="matrix(1,0,0,1,25,-52)">
        <path d="M775,997L904,1192L775,1192L775,997Z" style="fill:url(#_Linear3);"/>
    </g>
    <g transform="matrix(-1.560453,0.000595,-0.000399,-1.045828,3366.180646,2006.267324)">
        <path d="M1268.032,871L1359,1111L1268,1111L1268.032,871Z" style="fill:url(#_Linear4);"/>
    </g>
    <g transform="matrix(-1.560453,0.000595,-0.000395,-1.037494,3269.17788,1499.008991)">
        <path d="M1268.032,871L1359,1111L1268,1111L1268.032,871Z" style="fill:url(#_Linear5);"/>
    </g>
    <defs>
        <linearGradient id="_Linear1" x1="0" y1="0" x2="1" y2="0" gradientUnits="userSpaceOnUse" gradientTransform="matrix(173,0,0,146,401,632)"><stop offset="0" style="stop-color:rgb(245,246,157);stop-opacity:1"/><stop offset="0.51" style="stop-color:rgb(227,248,155);stop-opacity:1"/><stop offset="1" style="stop-color:rgb(169,255,149);stop-opacity:1"/></linearGradient>
        <linearGradient id="_Linear2" x1="0" y1="0" x2="1" y2="0" gradientUnits="userSpaceOnUse" gradientTransform="matrix(130,0,0,151,1549,530.5)"><stop offset="0" style="stop-color:rgb(197,255,198);stop-opacity:1"/><stop offset="1" style="stop-color:rgb(249,255,146);stop-opacity:1"/></linearGradient>
        <linearGradient id="_Linear3" x1="0" y1="0" x2="1" y2="0" gradientUnits="userSpaceOnUse" gradientTransform="matrix(129,0,0,195,775,1094.5)"><stop offset="0" style="stop-color:rgb(187,255,185);stop-opacity:1"/><stop offset="0.56" style="stop-color:rgb(216,238,174);stop-opacity:1"/><stop offset="1" style="stop-color:rgb(228,231,169);stop-opacity:1"/></linearGradient>
        <linearGradient id="_Linear4" x1="0" y1="0" x2="1" y2="0" gradientUnits="userSpaceOnUse" gradientTransform="matrix(91,0,0,240,1268,991)"><stop offset="0" style="stop-color:rgb(255,186,211);stop-opacity:1"/><stop offset="0.53" style="stop-color:rgb(255,198,201);stop-opacity:1"/><stop offset="1" style="stop-color:rgb(255,238,167);stop-opacity:1"/></linearGradient>
        <linearGradient id="_Linear5" x1="0" y1="0" x2="1" y2="0" gradientUnits="userSpaceOnUse" gradientTransform="matrix(91,0,0,240,1268,991)"><stop offset="0" style="stop-color:rgb(254,198,162);stop-opacity:1"/><stop offset="1" style="stop-color:rgb(255,252,183);stop-opacity:1"/></linearGradient>
    </defs>
</svg>
